<?xml version="1.0" encoding="UTF-8"?>
<svg xmlns="http://www.w3.org/2000/svg" xmlns:xlink="http://www.w3.org/1999/xlink" width="31pt" height="13pt" viewBox="0 0 31 13" version="1.1">
<g id="surface1">
<path style=" stroke:none;fill-rule:evenodd;fill:rgb(100%,100%,100%);fill-opacity:1;" d="M 0.421875 7.902344 L 24.304688 7.902344 L 24.164062 12.03125 C 24.003906 12.195312 24.003906 12.457031 24.164062 12.621094 L 24.40625 12.871094 C 24.480469 12.949219 24.582031 12.996094 24.6875 12.996094 C 24.792969 12.996094 24.894531 12.953125 24.96875 12.875 L 30.878906 6.792969 C 30.953125 6.714844 30.996094 6.609375 31 6.5 C 31 6.390625 30.957031 6.289062 30.882812 6.210938 L 24.972656 0.125 C 24.816406 -0.0351562 24.558594 -0.0351562 24.398438 0.125 L 24.15625 0.375 C 24.082031 0.453125 24.039062 0.554688 24.039062 0.664062 C 24.039062 0.773438 24.082031 0.878906 24.15625 0.953125 L 24.316406 5.089844 L 0.410156 5.089844 C 0.183594 5.097656 0.00390625 5.285156 0 5.519531 L 0 7.496094 C 0.0078125 7.726562 0.195312 7.910156 0.421875 7.902344 Z M 0.421875 7.902344 "/>
</g>
</svg>
