<?xml version="1.0" encoding="UTF-8"?>
<svg xmlns="http://www.w3.org/2000/svg" xmlns:xlink="http://www.w3.org/1999/xlink" width="40pt" height="26pt" viewBox="0 0 40 26" version="1.1">
<g id="surface1">
<path style=" stroke:none;fill-rule:nonzero;fill:#5a30f0;fill-opacity:1;" d="M 30.476562 24.0625 C 30.542969 24.035156 30.582031 23.996094 30.539062 23.921875 C 27.988281 22.984375 24.960938 22.191406 24.058594 19.5 C 23.953125 19.175781 23.953125 18.84375 23.996094 18.511719 C 24.152344 17.816406 24.152344 17.816406 24.859375 17.957031 C 24.925781 17.96875 24.996094 17.980469 25.058594 18.003906 C 25.253906 18.015625 25.375 18.09375 25.34375 18.320312 C 25.328125 18.675781 25.492188 19.035156 25.78125 19.21875 C 26.234375 19.203125 26.371094 19.511719 26.460938 19.882812 C 26.507812 20.074219 26.617188 20.246094 26.722656 20.414062 C 27.453125 21.480469 28.152344 22.257812 29.183594 22.644531 C 31.359375 23.34375 33.246094 22.996094 35.003906 22.488281 C 35.121094 22.417969 35.28125 22.394531 35.304688 22.222656 C 35.265625 22.132812 35.183594 22.117188 35.101562 22.101562 C 33.257812 22.191406 31.488281 22.371094 30.042969 21.265625 C 29.960938 21.207031 29.894531 21.128906 29.8125 21.082031 C 29.8125 21.082031 29.824219 21.085938 29.828125 21.089844 C 31.660156 22.804688 37.597656 22.046875 38.785156 20.414062 C 38.945312 20.21875 39.375 19.59375 39.164062 19.457031 C 37.816406 20.734375 35.863281 20.636719 34.589844 20.25 C 36.898438 20.167969 38.488281 19.855469 39.808594 18.464844 C 39.882812 18.386719 39.964844 18.3125 39.984375 18.207031 C 39.984375 18.179688 39.980469 18.152344 39.964844 18.128906 C 39.929688 18.078125 39.878906 18.066406 39.824219 18.0625 C 39.410156 18.199219 39.007812 18.425781 38.570312 18.488281 C 37.1875 18.6875 36.84375 18.742188 34.382812 18.324219 C 35.597656 18.695312 38.550781 18.617188 38.472656 17.945312 C 37.21875 18.136719 35.753906 18.101562 34.65625 17.621094 C 34.226562 17.433594 33.863281 17.136719 33.46875 16.894531 C 32.003906 15.992188 30.582031 16.1875 29.277344 16.359375 C 28.828125 16.417969 28.414062 16.628906 28.019531 16.855469 C 27.847656 16.953125 27.675781 16.988281 27.480469 16.925781 C 27.21875 16.839844 26.957031 16.910156 26.699219 16.964844 C 26.613281 16.992188 26.527344 17.015625 26.4375 17.039062 C 26.316406 17.082031 26.207031 17.15625 26.089844 17.214844 C 25.964844 17.28125 25.839844 17.253906 25.714844 17.222656 C 25.417969 17.148438 25.117188 17.09375 24.820312 17.03125 C 24.628906 16.988281 24.582031 16.886719 24.652344 16.707031 C 24.777344 16.371094 25.011719 16.0625 25.023438 15.703125 C 25.066406 14.460938 24.3125 14.042969 23.496094 13.488281 C 25.109375 13.484375 26.96875 13.054688 27.882812 11.992188 C 28.578125 11.191406 28.875 10.074219 29.769531 9.597656 C 31.363281 8.742188 33.695312 9.082031 35.164062 9.1875 C 36.648438 9.292969 38.695312 9.121094 39.328125 7.617188 C 39.332031 7.609375 39.347656 7.609375 39.351562 7.597656 C 39.535156 7.222656 39.636719 6.332031 39.433594 6.339844 C 38.972656 7.085938 38.457031 7.765625 37.695312 8.042969 C 35.003906 9.019531 31.816406 6.335938 29.140625 7.359375 C 27.410156 8.019531 27.195312 11.226562 25.28125 11.382812 C 22 11.648438 20.972656 8.476562 18.445312 7.9375 C 18.355469 7.925781 18.417969 7.882812 18.398438 7.914062 C 18.390625 7.921875 18.398438 7.929688 18.421875 7.929688 C 19.914062 7.945312 21.5 8.207031 22.675781 8.90625 C 23.640625 9.476562 24.351562 10.316406 25.53125 10.191406 C 26.761719 10.058594 27.699219 7.726562 28.429688 6.457031 C 27.449219 6.691406 26.984375 8.832031 25.804688 9.089844 C 23.980469 9.488281 23.53125 8.003906 22.175781 7.214844 C 21.171875 6.640625 20.332031 6.675781 19.359375 6.671875 C 20.390625 6.597656 21.617188 6.730469 22.460938 7.066406 C 23.542969 7.539062 24.570312 8.863281 25.707031 8.6875 C 25.902344 8.59375 26.164062 8.597656 26.226562 8.316406 C 24.050781 7.992188 23.566406 5.921875 21.058594 5.902344 C 17.742188 5.878906 16.476562 5.6875 15.125 5.648438 C 16.796875 5.59375 18.4375 5.820312 19.605469 5.792969 C 21.0625 5.542969 20.25 5.597656 19.160156 5.476562 C 17.625 5.308594 15.632812 4.851562 15.632812 4.851562 C 15.316406 4.757812 15.253906 4.664062 15.160156 4.359375 C 15.136719 3.761719 14.785156 2.59375 15.144531 2.15625 C 15.335938 1.949219 15.820312 2.089844 16.285156 2.152344 C 16.75 2.21875 17.4375 2.417969 18.273438 2.886719 C 17.738281 1.539062 17.011719 1.0625 16 0.695312 C 15.222656 0.414062 14.195312 -0.230469 13.472656 0.0859375 C 12.753906 0.398438 12.609375 1.316406 12.136719 2.011719 C 11.664062 2.707031 11.371094 3.515625 11.375 4.292969 C 11.328125 4.347656 11.246094 4.300781 11.199219 4.351562 C 9.484375 4.296875 7.769531 4.304688 6.136719 4.261719 C 6.144531 4.441406 6.25 4.5 6.378906 4.53125 L 6.375 4.53125 C 7.738281 4.96875 9.546875 4.761719 10.871094 5.214844 C 10.945312 5.242188 11.023438 5.261719 11.089844 5.300781 C 11.089844 5.300781 11.1875 5.4375 11.046875 5.542969 C 10.902344 5.644531 10.476562 5.449219 10.1875 5.753906 C 9.898438 6.054688 9.394531 7.246094 9.863281 7.472656 C 9.863281 7.472656 10.496094 6.84375 10.878906 6.996094 C 10.917969 7.015625 10.945312 7.042969 10.96875 7.082031 C 11.046875 7.40625 11.300781 7.738281 11.382812 8.0625 C 11.46875 8.355469 10.882812 8.691406 11.003906 8.929688 C 11.179688 9.210938 11.78125 9.09375 11.976562 8.96875 C 12.242188 8.792969 12.265625 8.804688 12.402344 9.097656 C 12.503906 9.304688 12.527344 9.503906 12.441406 9.730469 C 11.871094 11.207031 15.574219 12.910156 14.054688 13.304688 C 10.902344 14.214844 9.917969 12.175781 9.238281 12.585938 C 9.078125 12.730469 9.242188 12.898438 9.238281 13.082031 C 9.058594 13.117188 8.867188 13.074219 8.6875 13.117188 C 8.597656 13.144531 8.523438 13.175781 8.453125 13.226562 C 8.265625 13.453125 8.050781 13.625 7.800781 13.550781 L 0.300781 11.808594 C 0.195312 11.800781 0.128906 11.773438 0.0664062 11.867188 C -0.09375 12.148438 0.0546875 12.519531 0.265625 12.5625 L 8.097656 14.375 C 8.375 14.527344 8.628906 14.6875 8.90625 14.828125 C 9.019531 14.878906 9.136719 14.929688 9.265625 14.949219 C 9.355469 14.957031 9.445312 14.957031 9.53125 14.917969 C 9.59375 14.882812 9.644531 14.835938 9.636719 14.785156 C 9.871094 15.105469 9.621094 15.367188 9.570312 15.667969 C 9.316406 17.65625 10.683594 19.363281 11.757812 20.699219 C 11.925781 20.90625 12.09375 21.121094 12.285156 21.308594 C 12.34375 21.359375 12.414062 21.433594 12.488281 21.371094 C 12.570312 21.300781 12.519531 21.199219 12.492188 21.117188 C 11.546875 19.234375 11.21875 17.335938 11.792969 15.832031 C 12.015625 15.484375 12.265625 15.359375 12.59375 15.414062 C 12.804688 15.453125 12.902344 15.5625 12.890625 15.777344 C 13.679688 20.773438 14.605469 23.742188 19.707031 25.515625 C 19.765625 25.539062 19.785156 25.503906 19.796875 25.460938 C 19.753906 25.261719 19.5625 25.179688 19.445312 25.039062 C 18.425781 23.941406 17.417969 22.707031 17.882812 21.269531 C 17.960938 21.046875 18.003906 21.042969 18.140625 21.230469 C 19.402344 23.042969 21.152344 22.789062 22.359375 23.949219 C 22.945312 24.515625 23.472656 25.363281 23.761719 25.957031 C 23.773438 25.976562 23.792969 25.996094 23.8125 26.011719 C 24.679688 25.578125 24.335938 23.058594 24.039062 22.4375 C 23.585938 21.394531 21.851562 20.753906 21.253906 19.675781 C 22.5625 20.847656 23.695312 22.015625 25.003906 22.875 C 26.597656 23.921875 28.769531 24.09375 30.476562 24.0625 Z M 30.476562 24.0625 "/>
</g>
</svg>
